# This file uses centimeters as units for non-parametric coordinates.

mtllib dummy_stand.mtl
g default
v 5.706343 -0.003538 -4.966275
v 4.854105 -0.003538 -6.638885
v 3.526714 -0.003538 -7.966276
v 1.854103 -0.003538 -8.818514
v 0.000000 -0.003538 -9.112174
v -1.854103 -0.003538 -8.818513
v -3.526713 -0.003538 -7.966276
v -4.854104 -0.003538 -6.638884
v -5.706341 -0.003538 -4.966274
v -6.000001 -0.003538 -3.112171
v -5.706341 -0.003538 -1.258069
v -4.854103 -0.003538 0.414541
v -3.526712 -0.003538 1.741931
v -1.854102 -0.003538 2.594168
v -0.000000 -0.003538 2.887829
v 1.854102 -0.003538 2.594168
v 3.526711 -0.003538 1.741931
v 4.854102 -0.003538 0.414540
v 5.706339 -0.003538 -1.258069
v 6.000000 -0.003538 -3.112171
v 5.706343 1.996462 -4.966275
v 4.854105 1.996462 -6.638885
v 3.526714 1.996462 -7.966276
v 1.854103 1.996462 -8.818514
v 0.000000 1.996462 -9.112174
v -1.854103 1.996462 -8.818513
v -3.526713 1.996462 -7.966276
v -4.854104 1.996462 -6.638884
v -5.706341 1.996462 -4.966274
v -6.000001 1.996462 -3.112171
v -5.706341 1.996462 -1.258069
v -4.854103 1.996462 0.414541
v -3.526712 1.996462 1.741931
v -1.854102 1.996462 2.594168
v -0.000000 1.996462 2.887829
v 1.854102 1.996462 2.594168
v 3.526711 1.996462 1.741931
v 4.854102 1.996462 0.414540
v 5.706339 1.996462 -1.258069
v 6.000000 1.996462 -3.112171
vt 0.977408 0.086373
vt 0.906388 0.051527
vt 0.795772 0.023873
vt 0.656388 0.006118
vt 0.501880 -0.000000
vt 0.347371 0.006118
vt 0.207987 0.023873
vt 0.097371 0.051527
vt 0.026351 0.086373
vt 0.001880 0.125000
vt 0.026351 0.163627
vt 0.097371 0.198473
vt 0.207987 0.226127
vt 0.347371 0.243882
vt 0.501880 0.250000
vt 0.656388 0.243882
vt 0.795772 0.226127
vt 0.906388 0.198473
vt 0.977408 0.163627
vt 1.001880 0.125000
vt 0.000000 0.250000
vt 0.050000 0.250000
vt 0.100000 0.250000
vt 0.150000 0.250000
vt 0.200000 0.250000
vt 0.250000 0.250000
vt 0.300000 0.250000
vt 0.350000 0.250000
vt 0.400000 0.250000
vt 0.450000 0.250000
vt 0.500000 0.250000
vt 0.550000 0.250000
vt 0.600000 0.250000
vt 0.650000 0.250000
vt 0.700000 0.250000
vt 0.750000 0.250000
vt 0.800000 0.250000
vt 0.850000 0.250000
vt 0.900000 0.250000
vt 0.950000 0.250000
vt 1.000000 0.250000
vt 0.000000 0.750000
vt 0.050000 0.750000
vt 0.100000 0.750000
vt 0.150000 0.750000
vt 0.200000 0.750000
vt 0.250000 0.750000
vt 0.300000 0.750000
vt 0.350000 0.750000
vt 0.400000 0.750000
vt 0.450000 0.750000
vt 0.500000 0.750000
vt 0.550000 0.750000
vt 0.600000 0.750000
vt 0.650000 0.750000
vt 0.700000 0.750000
vt 0.750000 0.750000
vt 0.800000 0.750000
vt 0.850000 0.750000
vt 0.900000 0.750000
vt 0.950000 0.750000
vt 1.000000 0.750000
vt 0.977408 0.836373
vt 0.906388 0.801527
vt 0.795772 0.773873
vt 0.656388 0.756118
vt 0.501880 0.750000
vt 0.347371 0.756118
vt 0.207987 0.773873
vt 0.097371 0.801527
vt 0.026351 0.836373
vt 0.001880 0.875000
vt 0.026351 0.913627
vt 0.097371 0.948473
vt 0.207987 0.976127
vt 0.347371 0.993882
vt 0.501880 1.000000
vt 0.656388 0.993882
vt 0.795772 0.976127
vt 0.906388 0.948473
vt 0.977408 0.913627
vt 1.001880 0.875000
vn 0.951057 0.000000 -0.309016
vn 0.809017 0.000000 -0.587785
vn 0.809017 0.000000 -0.587785
vn 0.951057 0.000000 -0.309016
vn 0.587785 0.000000 -0.809017
vn 0.587785 0.000000 -0.809017
vn 0.309017 0.000000 -0.951057
vn 0.309017 0.000000 -0.951057
vn -0.000000 0.000000 -1.000000
vn -0.000000 0.000000 -1.000000
vn -0.309017 0.000000 -0.951057
vn -0.309017 0.000000 -0.951057
vn -0.587785 0.000000 -0.809017
vn -0.587785 0.000000 -0.809017
vn -0.809017 0.000000 -0.587785
vn -0.809017 0.000000 -0.587785
vn -0.951057 0.000000 -0.309017
vn -0.951057 0.000000 -0.309017
vn -1.000000 0.000000 0.000000
vn -1.000000 0.000000 0.000000
vn -0.951057 0.000000 0.309017
vn -0.951057 0.000000 0.309017
vn -0.809017 0.000000 0.587785
vn -0.809017 0.000000 0.587785
vn -0.587785 0.000000 0.809017
vn -0.587785 0.000000 0.809017
vn -0.309017 0.000000 0.951057
vn -0.309017 0.000000 0.951057
vn 0.000000 0.000000 1.000000
vn 0.000000 0.000000 1.000000
vn 0.309017 0.000000 0.951056
vn 0.309017 0.000000 0.951056
vn 0.587785 0.000000 0.809017
vn 0.587785 0.000000 0.809017
vn 0.809017 0.000000 0.587785
vn 0.809017 0.000000 0.587785
vn 0.951057 0.000000 0.309017
vn 0.951057 0.000000 0.309017
vn 1.000000 0.000000 0.000001
vn 1.000000 0.000000 0.000001
vn 0.000000 -1.000000 0.000000
vn 0.000000 -1.000000 0.000000
vn 0.000000 -1.000000 0.000000
vn 0.000000 -1.000000 0.000000
vn 0.000000 -1.000000 0.000000
vn 0.000000 -1.000000 0.000000
vn 0.000000 -1.000000 0.000000
vn 0.000000 -1.000000 0.000000
vn 0.000000 -1.000000 0.000000
vn 0.000000 -1.000000 0.000000
vn 0.000000 -1.000000 0.000000
vn 0.000000 -1.000000 0.000000
vn 0.000000 -1.000000 0.000000
vn 0.000000 -1.000000 0.000000
vn 0.000000 -1.000000 0.000000
vn 0.000000 -1.000000 0.000000
vn 0.000000 -1.000000 0.000000
vn 0.000000 -1.000000 0.000000
vn 0.000000 -1.000000 0.000000
vn 0.000000 -1.000000 0.000000
vn 0.000000 1.000000 0.000000
vn 0.000000 1.000000 0.000000
vn 0.000000 1.000000 0.000000
vn 0.000000 1.000000 0.000000
vn 0.000000 1.000000 0.000000
vn 0.000000 1.000000 0.000000
vn 0.000000 1.000000 0.000000
vn 0.000000 1.000000 0.000000
vn 0.000000 1.000000 0.000000
vn 0.000000 1.000000 0.000000
vn 0.000000 1.000000 0.000000
vn 0.000000 1.000000 0.000000
vn 0.000000 1.000000 0.000000
vn 0.000000 1.000000 0.000000
vn 0.000000 1.000000 0.000000
vn 0.000000 1.000000 0.000000
vn 0.000000 1.000000 0.000000
vn 0.000000 1.000000 0.000000
vn 0.000000 1.000000 0.000000
vn 0.000000 1.000000 0.000000
s 1
g base dummy_stand dummy
usemtl blinn4SG
f 1/21/1 2/22/2 22/43/3 21/42/4
f 2/22/2 3/23/5 23/44/6 22/43/3
f 3/23/5 4/24/7 24/45/8 23/44/6
f 4/24/7 5/25/9 25/46/10 24/45/8
f 5/25/9 6/26/11 26/47/12 25/46/10
f 6/26/11 7/27/13 27/48/14 26/47/12
f 7/27/13 8/28/15 28/49/16 27/48/14
f 8/28/15 9/29/17 29/50/18 28/49/16
f 9/29/17 10/30/19 30/51/20 29/50/18
f 10/30/19 11/31/21 31/52/22 30/51/20
f 11/31/21 12/32/23 32/53/24 31/52/22
f 12/32/23 13/33/25 33/54/26 32/53/24
f 13/33/25 14/34/27 34/55/28 33/54/26
f 14/34/27 15/35/29 35/56/30 34/55/28
f 15/35/29 16/36/31 36/57/32 35/56/30
f 16/36/31 17/37/33 37/58/34 36/57/32
f 17/37/33 18/38/35 38/59/36 37/58/34
f 18/38/35 19/39/37 39/60/38 38/59/36
f 19/39/37 20/40/39 40/61/40 39/60/38
f 20/40/39 1/41/1 21/62/4 40/61/40
s off
f 1/1/41 20/20/42 19/19/43 18/18/44 17/17/45 16/16/46 15/15/47 14/14/48 13/13/49 12/12/50 11/11/51 10/10/52 9/9/53 8/8/54 7/7/55 6/6/56 5/5/57 4/4/58 3/3/59 2/2/60
f 21/81/61 22/80/62 23/79/63 24/78/64 25/77/65 26/76/66 27/75/67 28/74/68 29/73/69 30/72/70 31/71/71 32/70/72 33/69/73 34/68/74 35/67/75 36/66/76 37/65/77 38/64/78 39/63/79 40/82/80
g default
v 0.190211 1.548731 -3.173975
v 0.161804 1.548731 -3.229729
v 0.117557 1.548731 -3.273975
v 0.061803 1.548731 -3.302383
v 0.000000 1.548731 -3.312172
v -0.061803 1.548731 -3.302383
v -0.117557 1.548731 -3.273975
v -0.161803 1.548731 -3.229729
v -0.190211 1.548731 -3.173975
v -0.200000 1.548731 -3.112171
v -0.190211 1.548731 -3.050368
v -0.161803 1.548731 -2.994614
v -0.117557 1.548731 -2.950368
v -0.061803 1.548731 -2.921960
v -0.000000 1.548731 -2.912171
v 0.061803 1.548731 -2.921960
v 0.117557 1.548731 -2.950368
v 0.161803 1.548731 -2.994614
v 0.190211 1.548731 -3.050368
v 0.200000 1.548731 -3.112171
v 0.190211 26.548731 -3.173975
v 0.161804 26.548731 -3.229729
v 0.117557 26.548731 -3.273975
v 0.061803 26.548731 -3.302383
v 0.000000 26.548731 -3.312172
v -0.061803 26.548731 -3.302383
v -0.117557 26.548731 -3.273975
v -0.161803 26.548731 -3.229729
v -0.190211 26.548731 -3.173975
v -0.200000 26.548731 -3.112171
v -0.190211 26.548731 -3.050368
v -0.161803 26.548731 -2.994614
v -0.117557 26.548731 -2.950368
v -0.061803 26.548731 -2.921960
v -0.000000 26.548731 -2.912171
v 0.061803 26.548731 -2.921960
v 0.117557 26.548731 -2.950368
v 0.161803 26.548731 -2.994614
v 0.190211 26.548731 -3.050368
v 0.200000 26.548731 -3.112171
vt 0.977408 0.086373
vt 0.906388 0.051527
vt 0.795772 0.023873
vt 0.656388 0.006118
vt 0.501880 -0.000000
vt 0.347371 0.006118
vt 0.207987 0.023873
vt 0.097371 0.051527
vt 0.026351 0.086373
vt 0.001880 0.125000
vt 0.026351 0.163627
vt 0.097371 0.198473
vt 0.207987 0.226127
vt 0.347371 0.243882
vt 0.501880 0.250000
vt 0.656388 0.243882
vt 0.795772 0.226127
vt 0.906388 0.198473
vt 0.977408 0.163627
vt 1.001880 0.125000
vt 0.000000 0.250000
vt 0.050000 0.250000
vt 0.100000 0.250000
vt 0.150000 0.250000
vt 0.200000 0.250000
vt 0.250000 0.250000
vt 0.300000 0.250000
vt 0.350000 0.250000
vt 0.400000 0.250000
vt 0.450000 0.250000
vt 0.500000 0.250000
vt 0.550000 0.250000
vt 0.600000 0.250000
vt 0.650000 0.250000
vt 0.700000 0.250000
vt 0.750000 0.250000
vt 0.800000 0.250000
vt 0.850000 0.250000
vt 0.900000 0.250000
vt 0.950000 0.250000
vt 1.000000 0.250000
vt 0.000000 0.750000
vt 0.050000 0.750000
vt 0.100000 0.750000
vt 0.150000 0.750000
vt 0.200000 0.750000
vt 0.250000 0.750000
vt 0.300000 0.750000
vt 0.350000 0.750000
vt 0.400000 0.750000
vt 0.450000 0.750000
vt 0.500000 0.750000
vt 0.550000 0.750000
vt 0.600000 0.750000
vt 0.650000 0.750000
vt 0.700000 0.750000
vt 0.750000 0.750000
vt 0.800000 0.750000
vt 0.850000 0.750000
vt 0.900000 0.750000
vt 0.950000 0.750000
vt 1.000000 0.750000
vt 0.977408 0.836373
vt 0.906388 0.801527
vt 0.795772 0.773873
vt 0.656388 0.756118
vt 0.501880 0.750000
vt 0.347371 0.756118
vt 0.207987 0.773873
vt 0.097371 0.801527
vt 0.026351 0.836373
vt 0.001880 0.875000
vt 0.026351 0.913627
vt 0.097371 0.948473
vt 0.207987 0.976127
vt 0.347371 0.993882
vt 0.501880 1.000000
vt 0.656388 0.993882
vt 0.795772 0.976127
vt 0.906388 0.948473
vt 0.977408 0.913627
vt 1.001880 0.875000
vn 0.951057 0.000000 -0.309016
vn 0.809017 0.000000 -0.587785
vn 0.809017 0.000000 -0.587785
vn 0.951057 0.000000 -0.309016
vn 0.587785 0.000000 -0.809017
vn 0.587785 0.000000 -0.809017
vn 0.309017 0.000000 -0.951057
vn 0.309017 0.000000 -0.951057
vn 0.000000 0.000000 -1.000000
vn 0.000000 0.000000 -1.000000
vn -0.309017 0.000000 -0.951057
vn -0.309017 0.000000 -0.951057
vn -0.587785 0.000000 -0.809017
vn -0.587785 0.000000 -0.809017
vn -0.809017 0.000000 -0.587785
vn -0.809017 0.000000 -0.587785
vn -0.951057 0.000000 -0.309017
vn -0.951057 0.000000 -0.309017
vn -1.000000 0.000000 0.000000
vn -1.000000 0.000000 0.000000
vn -0.951057 0.000000 0.309017
vn -0.951057 0.000000 0.309017
vn -0.809017 0.000000 0.587785
vn -0.809017 0.000000 0.587785
vn -0.587785 0.000000 0.809017
vn -0.587785 0.000000 0.809017
vn -0.309017 0.000000 0.951056
vn -0.309017 0.000000 0.951056
vn 0.000000 0.000000 1.000000
vn 0.000000 0.000000 1.000000
vn 0.309017 0.000000 0.951057
vn 0.309017 0.000000 0.951057
vn 0.587785 0.000000 0.809017
vn 0.587785 0.000000 0.809017
vn 0.809017 0.000000 0.587785
vn 0.809017 0.000000 0.587785
vn 0.951057 0.000000 0.309017
vn 0.951057 0.000000 0.309017
vn 1.000000 0.000000 0.000001
vn 1.000000 0.000000 0.000001
vn 0.000000 -1.000000 0.000005
vn 0.000000 -1.000000 0.000005
vn 0.000000 -1.000000 0.000005
vn 0.000000 -1.000000 0.000005
vn 0.000000 -1.000000 0.000005
vn 0.000000 -1.000000 0.000005
vn 0.000000 -1.000000 0.000005
vn 0.000000 -1.000000 0.000005
vn 0.000000 -1.000000 0.000005
vn 0.000000 -1.000000 0.000005
vn 0.000000 -1.000000 0.000005
vn 0.000000 -1.000000 0.000005
vn 0.000000 -1.000000 0.000005
vn 0.000000 -1.000000 0.000005
vn 0.000000 -1.000000 0.000005
vn 0.000000 -1.000000 0.000005
vn 0.000000 -1.000000 0.000005
vn 0.000000 -1.000000 0.000005
vn 0.000000 -1.000000 0.000005
vn 0.000000 -1.000000 0.000005
vn 0.000000 1.000000 -0.000002
vn 0.000000 1.000000 -0.000002
vn 0.000000 1.000000 -0.000002
vn 0.000000 1.000000 -0.000002
vn 0.000000 1.000000 -0.000002
vn 0.000000 1.000000 -0.000002
vn 0.000000 1.000000 -0.000002
vn 0.000000 1.000000 -0.000002
vn 0.000000 1.000000 -0.000002
vn 0.000000 1.000000 -0.000002
vn 0.000000 1.000000 -0.000002
vn 0.000000 1.000000 -0.000002
vn 0.000000 1.000000 -0.000002
vn 0.000000 1.000000 -0.000002
vn 0.000000 1.000000 -0.000002
vn 0.000000 1.000000 -0.000002
vn 0.000000 1.000000 -0.000002
vn 0.000000 1.000000 -0.000002
vn 0.000000 1.000000 -0.000002
vn 0.000000 1.000000 -0.000002
s 1
g dummy_stand dummy support
usemtl blinn4SG
f 41/103/81 42/104/82 62/125/83 61/124/84
f 42/104/82 43/105/85 63/126/86 62/125/83
f 43/105/85 44/106/87 64/127/88 63/126/86
f 44/106/87 45/107/89 65/128/90 64/127/88
f 45/107/89 46/108/91 66/129/92 65/128/90
f 46/108/91 47/109/93 67/130/94 66/129/92
f 47/109/93 48/110/95 68/131/96 67/130/94
f 48/110/95 49/111/97 69/132/98 68/131/96
f 49/111/97 50/112/99 70/133/100 69/132/98
f 50/112/99 51/113/101 71/134/102 70/133/100
f 51/113/101 52/114/103 72/135/104 71/134/102
f 52/114/103 53/115/105 73/136/106 72/135/104
f 53/115/105 54/116/107 74/137/108 73/136/106
f 54/116/107 55/117/109 75/138/110 74/137/108
f 55/117/109 56/118/111 76/139/112 75/138/110
f 56/118/111 57/119/113 77/140/114 76/139/112
f 57/119/113 58/120/115 78/141/116 77/140/114
f 58/120/115 59/121/117 79/142/118 78/141/116
f 59/121/117 60/122/119 80/143/120 79/142/118
f 60/122/119 41/123/81 61/144/84 80/143/120
s off
f 41/83/121 60/102/122 59/101/123 58/100/124 57/99/125 56/98/126 55/97/127 54/96/128 53/95/129 52/94/130 51/93/131 50/92/132 49/91/133 48/90/134 47/89/135 46/88/136 45/87/137 44/86/138 43/85/139 42/84/140
f 61/163/141 62/162/142 63/161/143 64/160/144 65/159/145 66/158/146 67/157/147 68/156/148 69/155/149 70/154/150 71/153/151 72/152/152 73/151/153 74/150/154 75/149/155 76/148/156 77/147/157 78/146/158 79/145/159 80/164/160
