# This file uses centimeters as units for non-parametric coordinates.

mtllib view_outside.mtl
g default
v -18.000000 -20.000000 -1.000000
v -14.400000 -20.000000 -1.000000
v -10.800000 -20.000000 -1.000000
v -7.200000 -20.000000 -1.000000
v -3.600000 -20.000000 -1.000000
v 0.000000 -20.000000 -1.000000
v 3.600001 -20.000000 -1.000000
v 7.200000 -20.000000 -1.000000
v 10.800000 -20.000000 -1.000000
v 14.400001 -20.000000 -1.000000
v 18.000000 -20.000000 -1.000000
v -18.000000 -16.000000 -1.000000
v 18.000000 -16.000000 -1.000000
v -18.000000 -12.000000 -1.000000
v 18.000000 -12.000000 -1.000000
v -18.000000 -8.000000 -1.000000
v 18.000000 -8.000000 -1.000000
v -18.000000 -4.000000 -1.000000
v 18.000000 -4.000000 -1.000000
v -18.000000 0.000000 -1.000000
v 18.000000 0.000000 -1.000000
v -18.000000 4.000001 -1.000000
v 18.000000 4.000001 -1.000000
v -18.000000 8.000000 -1.000000
v 18.000000 8.000000 -1.000000
v -18.000000 12.000000 -1.000000
v 18.000000 12.000000 -1.000000
v -18.000000 16.000001 -1.000000
v 18.000000 16.000001 -1.000000
v -18.000000 20.000000 -1.000000
v -14.400000 20.000000 -1.000000
v -10.800000 20.000000 -1.000000
v -7.200000 20.000000 -1.000000
v -3.600000 20.000000 -1.000000
v 0.000000 20.000000 -1.000000
v 3.600001 20.000000 -1.000000
v 7.200000 20.000000 -1.000000
v 10.800000 20.000000 -1.000000
v 14.400001 20.000000 -1.000000
v 18.000000 20.000000 -1.000000
vt 0.000000 0.000000
vt 0.100000 0.000000
vt 0.200000 0.000000
vt 0.300000 0.000000
vt 0.400000 0.000000
vt 0.500000 0.000000
vt 0.600000 0.000000
vt 0.700000 0.000000
vt 0.800000 0.000000
vt 0.900000 0.000000
vt 1.000000 0.000000
vt 0.000000 0.100000
vt 1.000000 0.100000
vt 0.000000 0.200000
vt 1.000000 0.200000
vt 0.000000 0.300000
vt 1.000000 0.300000
vt 0.000000 0.400000
vt 1.000000 0.400000
vt 0.000000 0.500000
vt 1.000000 0.500000
vt 0.000000 0.600000
vt 1.000000 0.600000
vt 0.000000 0.700000
vt 1.000000 0.700000
vt 0.000000 0.800000
vt 1.000000 0.800000
vt 0.000000 0.900000
vt 1.000000 0.900000
vt 0.000000 1.000000
vt 0.100000 1.000000
vt 0.200000 1.000000
vt 0.300000 1.000000
vt 0.400000 1.000000
vt 0.500000 1.000000
vt 0.600000 1.000000
vt 0.700000 1.000000
vt 0.800000 1.000000
vt 0.900000 1.000000
vt 1.000000 1.000000
vn 0.000000 0.000000 1.000000
vn 0.000000 0.000000 1.000000
vn 0.000000 0.000000 1.000000
vn 0.000000 0.000000 1.000000
vn 0.000000 0.000000 1.000000
vn 0.000000 0.000000 1.000000
vn 0.000000 0.000000 1.000000
vn 0.000000 0.000000 1.000000
vn 0.000000 0.000000 1.000000
vn 0.000000 0.000000 1.000000
vn 0.000000 0.000000 1.000000
vn 0.000000 0.000000 1.000000
vn 0.000000 0.000000 1.000000
vn 0.000000 0.000000 1.000000
vn 0.000000 0.000000 1.000000
vn 0.000000 0.000000 1.000000
vn 0.000000 0.000000 1.000000
vn 0.000000 0.000000 1.000000
vn 0.000000 0.000000 1.000000
vn 0.000000 0.000000 1.000000
vn 0.000000 0.000000 1.000000
vn 0.000000 0.000000 1.000000
vn 0.000000 0.000000 1.000000
vn 0.000000 0.000000 1.000000
vn 0.000000 0.000000 1.000000
vn 0.000000 0.000000 1.000000
vn 0.000000 0.000000 1.000000
vn 0.000000 0.000000 1.000000
vn 0.000000 0.000000 1.000000
vn 0.000000 0.000000 1.000000
vn 0.000000 0.000000 1.000000
vn 0.000000 0.000000 1.000000
vn 0.000000 0.000000 1.000000
vn 0.000000 0.000000 1.000000
vn 0.000000 0.000000 1.000000
vn 0.000000 0.000000 1.000000
vn 0.000000 0.000000 1.000000
vn 0.000000 0.000000 1.000000
vn 0.000000 0.000000 1.000000
vn 0.000000 0.000000 1.000000
s off
g view_outside
usemtl initialShadingGroup
f 29/29/1 40/40/2 39/39/3 38/38/4 37/37/5 36/36/6 35/35/7 34/34/8 33/33/9 32/32/10 31/31/11 30/30/12 28/28/13 26/26/14 24/24/15 22/22/16 20/20/17 18/18/18 16/16/19 14/14/20 12/12/21 1/1/22 2/2/23 3/3/24 4/4/25 5/5/26 6/6/27 7/7/28 8/8/29 9/9/30 10/10/31 11/11/32 13/13/33 15/15/34 17/17/35 19/19/36 21/21/37 23/23/38 25/25/39 27/27/40
