# This file uses centimeters as units for non-parametric coordinates.

mtllib wall.mtl
g default
v -75.069885 -50.000000 -22.500000
v 74.930115 -50.000000 -22.500000
v -75.069885 50.000000 -22.500000
v 74.930115 50.000000 -22.500000
v -75.069885 50.000000 -23.500000
v 74.930115 50.000000 -23.500000
v -75.069885 -50.000000 -23.500000
v 74.930115 -50.000000 -23.500000
vt -1.571813 -0.991811
vt 2.874218 -0.991811
vt 2.874218 1.949219
vt -1.571813 1.949219
vt 0.743326 0.971543
vt 0.266446 0.971543
vt 0.743326 0.986629
vt 0.266446 0.986629
vt 2.874218 0.008189
vt -1.571813 0.008189
vt 0.993326 0.236629
vt 0.993326 0.721543
vt 0.016446 0.236629
vt 0.016446 0.721543
vn 0.000000 0.000000 1.000000
vn 0.000000 0.000000 1.000000
vn 0.000000 0.000000 1.000000
vn 0.000000 0.000000 1.000000
vn 0.000000 1.000000 0.000000
vn 0.000000 1.000000 0.000000
vn 0.000000 1.000000 0.000000
vn 0.000000 1.000000 0.000000
vn 0.000000 0.000000 -1.000000
vn 0.000000 0.000000 -1.000000
vn 0.000000 0.000000 -1.000000
vn 0.000000 0.000000 -1.000000
vn 0.000000 -1.000000 0.000000
vn 0.000000 -1.000000 0.000000
vn 0.000000 -1.000000 0.000000
vn 0.000000 -1.000000 0.000000
vn 1.000000 0.000000 0.000000
vn 1.000000 0.000000 0.000000
vn 1.000000 0.000000 0.000000
vn 1.000000 0.000000 0.000000
vn -1.000000 0.000000 0.000000
vn -1.000000 0.000000 0.000000
vn -1.000000 0.000000 0.000000
vn -1.000000 0.000000 0.000000
s off
g wall:wall
usemtl wall:initialShadingGroup
f 1/1/1 2/2/2 4/3/3 3/4/4
f 3/4/5 4/3/6 6/5/7 5/6/8
f 5/6/9 6/5/10 8/7/11 7/8/12
f 7/8/13 8/7/14 2/9/15 1/10/16
f 2/2/17 8/11/18 6/12/19 4/3/20
f 7/13/21 1/1/22 3/4/23 5/14/24
